# xmcd
#
# Track frame offsets:
#       150
#       11472
#       19908
#       29138
#       40382
#       49092
#       59713
#       74585
#       82739
#       94845
#       103079
#       117387
#       126309
#       138113
#       155105
#       165590
#       176211
#       189057
#       199897
#       208592
#       221440
#       230382
#       241214
#       251874
#
# Disc length: 3544 seconds
#
# Revision: 1
# Processed by: cddbd v1.5.2PL0 Copyright (c) Steve Scherf et al.
# Submitted via: FreeDbEdit v0.1
#
DISCID=600dd618
DTITLE=Roger Miller - The Very Best of Roger Miller
DYEAR=1988
DGENRE=Country
TTITLE0=King of the Road
TTITLE1=Dang Me
TTITLE2=Chug-A-Lug
TTITLE3=Husbands and Wives
TTITLE4=You Can't Roller Skate in a Bufalo Herd
TTITLE5=Kansas City Star
TTITLE6=Me and Bobby Mcgee
TTITLE7=Do-Wacka-Do
TTITLE8=Little Green Apples
TTITLE9=In the Summertime
TTITLE10=Green Green Grass of Home
TTITLE11=My Uncle Used to Love Me but She Died
TTITLE12=Walking in the Sunshine
TTITLE13=Honey
TTITLE14=Engine Engine Number Nine
TTITLE15=Please Release Me
TTITLE16=Heartaches by the Number
TTITLE17=Don't We All Have the Right to Be Wrong
TTITLE18=Endland Swings
TTITLE19=The Last Word in Lonesome Is Me
TTITLE20=Billy Bayou
TTITLE21=Burning Bridges
TTITLE22=When Two Worlds Collide
TTITLE23=My Eluseve Dreams
EXTD=
EXTT0=
EXTT1=
EXTT2=
EXTT3=
EXTT4=
EXTT5=
EXTT6=
EXTT7=
EXTT8=
EXTT9=
EXTT10=
EXTT11=
EXTT12=
EXTT13=
EXTT14=
EXTT15=
EXTT16=
EXTT17=
EXTT18=
EXTT19=
EXTT20=
EXTT21=
EXTT22=
EXTT23=
PLAYORDER=
